<svg id="Layer_1" data-name="Layer 1" xmlns="http://www.w3.org/2000/svg" viewBox="0 0 96 96">
<path d="M85.5,82.46h-75A8.51,8.51,0,0,1,2,74V28.75a8.51,8.51,0,0,1,8.5-8.5h75a8.51,8.51,0,0,1,8.5,8.5V74A8.51,8.51,0,0,1,85.5,82.46Zm-75-60.21A6.51,6.51,0,0,0,4,28.75V74a6.51,6.51,0,0,0,6.5,6.5h75A6.51,6.51,0,0,0,92,74V28.75a6.51,6.51,0,0,0-6.5-6.5Z" fill="#06b6d4"/>
<path d="M39.25,63.44H3a1,1,0,0,1-1-1V40.28a1,1,0,0,1,1-1H38.25a1,1,0,0,1,0,2H4V61.44H39.25a1,1,0,0,1,0,2Z" fill="#06b6d4"/>
<path d="M59.07,75.15a23.8,23.8,0,1,1,22.79-17A23.94,23.94,0,0,1,59.07,75.15Zm0-45.58A21.92,21.92,0,0,0,38.2,45.11a21.66,21.66,0,0,0,0,12.49,21.78,21.78,0,0,0,41.74,0,21.79,21.79,0,0,0-20.87-28Z" fill="#06b6d4"/>
<path d="M59.07,68.14A16.89,16.89,0,0,1,43,56.17a16.65,16.65,0,0,1,0-9.62,16.77,16.77,0,0,1,32.14,0,16.65,16.65,0,0,1,0,9.62A16.88,16.88,0,0,1,59.07,68.14Zm0-31.56A14.86,14.86,0,0,0,44.92,47.12a14.55,14.55,0,0,0,0,8.47,14.77,14.77,0,1,0,14.15-19Z" fill="#06b6d4" />
<path d="M49.37,49.45a.92.92,0,0,1-.29,0,1,1,0,0,1-.67-1.24,11.18,11.18,0,0,1,10.66-7.94,1,1,0,0,1,0,2,9.2,9.2,0,0,0-8.75,6.51A1,1,0,0,1,49.37,49.45Z" fill="#06b6d4" />
<path d="M81.86,22.26H41.05a1,1,0,0,1-.89-.56,1,1,0,0,1,.1-1.06l3.36-4.31A5.49,5.49,0,0,1,48,14.21H75a5.49,5.49,0,0,1,4.34,2.12l3.35,4.31a1,1,0,0,1-.79,1.62Zm-38.76-2H79.82l-2.1-2.7h0A3.48,3.48,0,0,0,75,16.21H48a3.45,3.45,0,0,0-2.76,1.35Z" fill="#06b6d4" />
<path d="M23,22.25H14.28a1,1,0,0,1-1-1V16.92a2,2,0,0,1,2-2H22a2,2,0,0,1,2,2v4.33A1,1,0,0,1,23,22.25Zm-7.73-2H22V16.92H15.28Z" fill="#06b6d4" />
<path d="M35.38,22.25H29.85a1,1,0,0,1-1-1V16.38a2.85,2.85,0,0,1,2.85-2.84h1.84a2.84,2.84,0,0,1,2.84,2.84v4.87A1,1,0,0,1,35.38,22.25Zm-4.53-2h3.53V16.38a.84.84,0,0,0-.84-.84H31.7a.85.85,0,0,0-.85.84Z" fill="#06b6d4" />
</svg>